<svg width="200" height="200" xmlns="http://www.w3.org/2000/svg" data-bbox="39.885 20 119.928 159.9" data-type="color">
 <g>
  <title>Layer 1</title>
  <g stroke="null" id="svg_1">
   <path stroke="null" d="m172.37441,183.07638l-32.85717,-30.24354c-2.36472,-2.36472 -0.62229,-6.47187 2.7381,-6.34741l11.07685,0.37338c3.23593,0 4.97836,-3.60931 2.98702,-6.09849l-33.60393,-40.69809c-1.99134,-2.48918 -0.24892,-6.22295 2.98702,-6.09849l7.84092,-0.24892c3.36039,0 5.10282,-3.85823 2.86256,-6.22295l-35.22189,-50.15697c-1.61797,-1.74243 -4.60498,-1.49351 -5.84957,0.49784l-37.95999,48.53901c-1.61797,2.48918 0,5.60065 2.98702,5.72511l6.59633,0.24892c2.98702,0 4.72944,3.60931 2.86256,5.97403l-30.61691,39.32904c-1.86688,2.36472 -0.24892,5.97403 2.86256,5.97403l15.68183,0.49784c3.23593,0 4.8539,3.85823 2.61364,6.22295l-32.35934,34.84852c-1.99134,2.1158 -0.87121,5.60065 1.99134,6.22295c49.7836,10.3301 93.96654,8.08983 140.5142,-1.99134c2.86256,-0.62229 3.98269,-4.23161 1.99134,-6.22295l-0.12446,-0.12446z" fill="#6cb347" data-color="1" id="svg_2"/>
   <path stroke="null" d="m94.33862,199.50496c-21.53141,0 -42.81389,-2.24026 -64.84314,-6.84524c-1.86688,-0.37338 -3.36039,-1.74243 -3.85823,-3.48485c-0.62229,-1.86688 -0.12446,-3.73377 1.12013,-5.10282l32.35934,-34.84852c0.62229,-0.62229 0.74675,-1.49351 0.37338,-2.36472s-1.12013,-1.36905 -1.99134,-1.36905l-15.68183,-0.49784c-1.99134,0 -3.73377,-1.24459 -4.60498,-2.98702s-0.62229,-3.85823 0.62229,-5.4762l30.61691,-39.32904c0.49784,-0.62229 0.62229,-1.49351 0.24892,-2.36472c-0.37338,-0.74675 -1.12013,-1.24459 -1.99134,-1.24459l-6.59633,-0.24892c-1.86688,0 -3.60931,-1.12013 -4.48052,-2.7381c-0.87121,-1.74243 -0.74675,-3.60931 0.24892,-5.22728l37.95999,-48.41455c0.87121,-1.36905 2.24026,-2.1158 3.85823,-2.36472c1.61797,-0.12446 3.23593,0.49784 4.23161,1.61797l0,0.12446l35.22189,50.03251c1.36905,1.61797 1.74243,3.73377 0.87121,5.60065c-0.87121,1.99134 -2.7381,3.11147 -4.8539,3.11147l-7.84092,0.24892c-0.87121,0 -1.61797,0.49784 -1.99134,1.24459c-0.37338,0.87121 -0.24892,1.74243 0.24892,2.36472l33.60393,40.69809c1.36905,1.61797 1.61797,3.73377 0.62229,5.60065c-0.87121,1.86688 -2.7381,2.98702 -4.8539,2.98702l-11.07685,-0.37338c-1.36905,0 -1.99134,0.99567 -2.1158,1.36905s-0.49784,1.49351 0.49784,2.48918l32.85717,30.24354c1.36905,1.36905 1.86688,3.23593 1.24459,5.10282c-0.49784,1.86688 -2.1158,3.23593 -3.98269,3.60931c-27.0076,5.84957 -51.8994,8.83659 -76.41782,8.83659l0.37338,0zm-35.84419,-112.51093c-0.37338,0.62229 -0.49784,1.49351 0,2.24026c0.37338,0.74675 1.12013,1.12013 1.86688,1.24459l6.59633,0.24892c1.99134,0 3.73377,1.24459 4.60498,2.98702s0.62229,3.85823 -0.62229,5.4762l-30.61691,39.32904c-0.49784,0.62229 -0.62229,1.49351 -0.24892,2.36472s1.12013,1.24459 1.99134,1.24459l15.68183,0.49784c2.1158,0 3.85823,1.24459 4.60498,3.23593c0.74675,1.86688 0.37338,4.10715 -0.99567,5.60065l-32.35934,34.84852c-0.49784,0.62229 -0.74675,1.36905 -0.49784,2.24026c0.24892,0.74675 0.87121,1.36905 1.61797,1.49351c46.4232,9.58334 89.61047,8.96105 139.89191,-1.99134c0.87121,-0.12446 1.49351,-0.74675 1.74243,-1.61797c0.24892,-0.74675 0,-1.61797 -0.49784,-2.1158l-32.85717,-30.24354c-1.61797,-1.61797 -1.99134,-3.85823 -1.12013,-5.84957s2.7381,-3.23593 4.97836,-3.11147l11.07685,0.37338c0.87121,0 1.61797,-0.49784 2.1158,-1.24459c0.37338,-0.87121 0.24892,-1.74243 -0.24892,-2.36472l-33.60393,-40.69809c-1.36905,-1.61797 -1.61797,-3.73377 -0.62229,-5.60065c0.87121,-1.86688 2.7381,-2.98702 4.72944,-2.86256l7.84092,-0.24892c0.99567,0 1.74243,-0.49784 2.1158,-1.36905s0.24892,-1.74243 -0.37338,-2.48918l0,-0.12446l-35.22189,-50.03251c-0.49784,-0.49784 -1.12013,-0.74675 -1.74243,-0.62229c-0.74675,0 -1.36905,0.37338 -1.74243,0.99567l-37.83553,48.41455l-0.24892,-0.24892z" id="svg_3"/>
   <path stroke="null" fill="#fbb03b" d="m94.08971,23.39549l7.71646,-21.28249l4.97836,22.90045l20.16236,-6.22295l-15.184,18.17101l12.94374,15.30846l-19.91344,-2.98702l-8.08983,19.78898l-5.60065,-23.64721l-22.27816,6.22295l15.30846,-17.79764l-11.32577,-15.68183l21.28249,5.22728z" data-color="2" id="svg_4"/>
   <path stroke="null" d="m96.70334,70.56545c-0.62229,0 -1.24459,-0.49784 -1.36905,-1.12013l-5.22728,-22.1537l-20.78465,5.72511c-0.62229,0.12446 -1.24459,0 -1.61797,-0.62229c-0.37338,-0.49784 -0.24892,-1.24459 0.12446,-1.74243l14.5617,-16.92642l-10.57901,-14.68616c-0.37338,-0.49784 -0.37338,-1.24459 0,-1.74243s0.99567,-0.74675 1.61797,-0.62229l19.91344,4.8539l7.34308,-20.0379c0.24892,-0.62229 0.87121,-0.99567 1.49351,-0.99567s1.24459,0.49784 1.36905,1.12013l4.72944,21.40695l18.54439,-5.84957c0.62229,-0.24892 1.36905,0 1.74243,0.62229c0.37338,0.49784 0.37338,1.24459 0,1.74243l-14.31278,17.17534l12.19698,14.43724c0.37338,0.49784 0.49784,1.12013 0.12446,1.74243c-0.24892,0.49784 -0.87121,0.87121 -1.49351,0.74675l-18.79331,-2.86256l-7.592,18.66885c-0.24892,0.62229 -0.74675,0.87121 -1.36905,0.87121l-0.62229,0.24892zm-5.60065,-26.63422c0.24892,0 0.49784,0 0.74675,0.24892c0.37338,0.24892 0.62229,0.49784 0.74675,0.99567l4.48052,19.04223l6.34741,-15.43292c0.24892,-0.62229 0.87121,-0.99567 1.61797,-0.87121l16.05521,2.48918l-10.45456,-12.32144c-0.49784,-0.49784 -0.49784,-1.36905 0,-1.86688l11.94806,-14.31278l-15.184,4.72944c-0.37338,0 -0.87121,0 -1.24459,-0.12446s-0.62229,-0.62229 -0.74675,-0.99567l-3.98269,-17.92209l-5.97403,16.42859c-0.24892,0.74675 -0.99567,1.12013 -1.74243,0.99567l-17.2998,-4.23161l8.96105,12.4459c0.37338,0.49784 0.37338,1.36905 0,1.86688l-12.07252,14.06387l17.54872,-4.8539l0.37338,0l-0.12446,-0.37338z" id="svg_5"/>
   <path stroke="null" fill="#ff80b3" d="m69.69574,114.99731a11.57469,11.57469 0 1 1 -23.14937,0a11.57469,11.57469 0 0 1 23.14937,0" data-color="3" id="svg_6"/>
   <path stroke="null" d="m58.12106,128.0655c-1.24459,0 -2.61364,-0.24892 -3.85823,-0.62229c-6.84524,-2.1158 -10.82793,-9.58334 -8.58767,-16.42859s9.58334,-10.82793 16.42859,-8.58767c6.84524,2.1158 10.82793,9.58334 8.58767,16.42859c-1.74243,5.60065 -6.9697,9.20997 -12.57036,9.20997m0,-23.27383c-4.35606,0 -8.33875,2.7381 -9.7078,7.09416c-1.61797,5.35174 1.36905,11.07685 6.59633,12.69482c5.35174,1.61797 11.07685,-1.36905 12.69482,-6.59633c1.61797,-5.35174 -1.36905,-11.07685 -6.59633,-12.69482c-0.99567,-0.37338 -1.99134,-0.49784 -2.98702,-0.49784m11.07685,13.69049" id="svg_7"/>
   <path stroke="null" d="m126.44904,168.1413c-1.86688,6.09849 -8.46321,9.58334 -14.5617,7.592c-6.09849,-1.86688 -9.58334,-8.46321 -7.592,-14.5617s8.46321,-9.58334 14.5617,-7.592c6.09849,1.86688 9.58334,8.46321 7.592,14.5617" fill="#29abe2" data-color="4" id="svg_8"/>
   <path stroke="null" d="m115.37219,177.8491c-1.36905,0 -2.61364,-0.24892 -3.98269,-0.62229c-3.36039,-0.99567 -6.09849,-3.36039 -7.71646,-6.47187s-1.99134,-6.59633 -0.87121,-9.95672c2.1158,-6.84524 9.58334,-10.82793 16.42859,-8.58767c3.36039,0.99567 6.09849,3.36039 7.71646,6.47187s1.99134,6.59633 0.87121,9.95672c-0.99567,3.36039 -3.36039,6.09849 -6.47187,7.71646c-1.86688,0.99567 -3.98269,1.49351 -6.09849,1.49351l0.12446,0zm0,-23.27383c-4.35606,0 -8.33875,2.7381 -9.7078,7.09416c-0.74675,2.61364 -0.62229,5.35174 0.74675,7.71646c1.24459,2.36472 3.36039,4.10715 5.97403,4.97836c2.61364,0.74675 5.35174,0.62229 7.71646,-0.74675c2.36472,-1.24459 4.10715,-3.36039 4.97836,-5.97403s0.62229,-5.35174 -0.74675,-7.71646c-1.24459,-2.36472 -3.36039,-4.10715 -5.97403,-4.97836c-0.99567,-0.37338 -1.99134,-0.49784 -2.98702,-0.49784l0,0.12446z" id="svg_9"/>
  </g>
 </g>

</svg>